<?xml version="1.0" standalone="no"?>
<!DOCTYPE svg PUBLIC "-//W3C//DTD SVG 20010904//EN"
 "http://www.w3.org/TR/2001/REC-SVG-20010904/DTD/svg10.dtd">
<svg version="1.0" xmlns="http://www.w3.org/2000/svg"
 width="512.000000pt" height="512.000000pt" viewBox="0 0 512.000000 512.000000"
 preserveAspectRatio="xMidYMid meet">

<g transform="translate(0.000000,512.000000) scale(0.100000,-0.100000)"
fill="#000000" stroke="none">
<path d="M943 5036 c-402 -77 -706 -360 -816 -761 -19 -69 -22 -104 -21 -255
0 -161 3 -182 28 -264 60 -197 131 -313 282 -463 l104 -103 -25 -92 c-56 -206
-69 -316 -69 -558 1 -200 4 -240 27 -360 15 -74 33 -157 41 -184 l15 -49 -93
-91 c-147 -145 -235 -294 -289 -491 -19 -69 -22 -104 -21 -255 0 -161 3 -182
28 -264 54 -180 128 -308 250 -434 176 -183 392 -288 637 -311 339 -32 652 95
883 358 l38 44 122 -27 c196 -42 270 -50 486 -50 213 0 284 8 481 51 l116 25
84 -87 c97 -101 171 -156 286 -214 282 -141 627 -140 911 3 257 130 442 353
529 641 25 83 27 103 27 270 0 156 -3 191 -22 259 -53 190 -135 330 -280 475
l-94 94 26 111 c47 201 51 241 51 496 0 264 -13 366 -69 560 l-24 84 92 87
c146 138 234 280 293 474 25 84 27 103 27 270 0 154 -3 191 -21 257 -103 366
-375 640 -731 736 -86 23 -116 26 -262 26 -148 0 -175 -3 -263 -27 -220 -61
-402 -183 -558 -376 l-35 -44 -95 21 c-175 39 -249 47 -474 47 -224 0 -287 -6
-469 -47 l-99 -22 -36 45 c-159 196 -341 319 -559 376 -120 31 -326 40 -439
19z m1797 -746 c47 -6 118 -17 158 -26 68 -15 73 -17 67 -37 -14 -43 -17 -289
-5 -364 62 -387 363 -719 745 -823 108 -29 349 -38 450 -17 39 8 73 12 76 9
11 -11 47 -180 60 -277 17 -128 6 -423 -20 -544 -11 -51 -22 -95 -25 -98 -2
-2 -50 3 -107 13 -201 33 -413 5 -595 -81 -123 -57 -204 -113 -295 -204 -140
-140 -237 -315 -280 -510 -23 -104 -25 -302 -5 -406 8 -38 11 -73 7 -77 -13
-14 -149 -38 -288 -50 -113 -9 -171 -9 -275 0 -132 12 -277 37 -290 50 -4 4 0
39 8 77 25 113 14 354 -20 468 -87 290 -272 512 -537 644 -181 89 -418 124
-617 89 -52 -9 -97 -14 -102 -11 -4 3 -18 58 -31 122 -19 98 -23 150 -23 308
0 184 6 240 41 390 24 108 20 104 100 88 108 -23 342 -12 462 21 174 49 333
147 466 287 117 124 201 271 246 434 25 92 38 334 21 423 -8 46 -7 54 8 62 19
10 164 37 235 43 89 8 285 6 365 -3z"/>
</g>
</svg>
